<?xml version="1.0" standalone="no"?>
<!DOCTYPE svg PUBLIC "-//W3C//DTD SVG 20010904//EN"
 "http://www.w3.org/TR/2001/REC-SVG-20010904/DTD/svg10.dtd">
<svg version="1.0" xmlns="http://www.w3.org/2000/svg"
 width="4881.000000pt" height="4881.000000pt" viewBox="0 0 4881.000000 4881.000000"
 preserveAspectRatio="xMidYMid meet">
<metadata>
Created by potrace 1.11, written by Peter Selinger 2001-2013
</metadata>
<g transform="translate(0.000000,4881.000000) scale(0.100000,-0.100000)"
fill="#000000" stroke="none">
<path d="M12355 34944 c-80 -9 -288 -46 -304 -54 -9 -5 -56 -19 -106 -31 -49
-12 -92 -25 -95 -28 -3 -4 -34 -15 -70 -25 -36 -10 -74 -23 -85 -30 -11 -7
-38 -19 -60 -26 -69 -22 -351 -155 -357 -169 -2 -3 -27 -17 -55 -30 -29 -14
-53 -28 -53 -32 0 -4 -10 -11 -22 -15 -13 -4 -49 -24 -80 -45 -31 -22 -61 -39
-66 -39 -4 0 -17 -8 -28 -17 -11 -10 -53 -40 -94 -68 -41 -27 -79 -54 -85 -61
-5 -6 -20 -16 -33 -23 -39 -21 -277 -211 -354 -283 -16 -15 -35 -31 -43 -35
-13 -8 -55 -47 -254 -232 -229 -213 -476 -473 -744 -783 -17 -21 -45 -53 -62
-71 -16 -19 -43 -51 -60 -72 -16 -21 -47 -59 -68 -84 -46 -55 -74 -90 -122
-151 -19 -25 -41 -52 -48 -60 -7 -8 -24 -31 -37 -50 -22 -32 -46 -63 -102
-130 -11 -13 -25 -35 -31 -47 -6 -13 -14 -23 -18 -23 -5 0 -15 -12 -23 -27 -8
-16 -26 -41 -40 -57 -13 -17 -33 -45 -43 -63 -10 -18 -21 -33 -25 -33 -4 0
-17 -17 -28 -37 -12 -21 -41 -65 -65 -98 -24 -33 -52 -73 -61 -90 -9 -16 -20
-32 -23 -35 -12 -10 -61 -90 -61 -100 0 -5 -4 -10 -10 -10 -5 0 -17 -15 -26
-32 -9 -18 -40 -69 -69 -113 -101 -156 -125 -194 -132 -211 -3 -10 -21 -40
-40 -68 -18 -28 -33 -56 -33 -63 0 -7 -4 -13 -8 -13 -5 0 -15 -12 -23 -27 -7
-16 -28 -51 -46 -80 -18 -29 -33 -56 -33 -62 0 -5 -6 -16 -13 -23 -7 -7 -33
-51 -59 -98 -25 -47 -55 -101 -66 -120 -12 -19 -30 -51 -40 -70 -11 -19 -56
-102 -101 -183 -105 -191 -145 -279 -160 -347 -7 -30 -18 -66 -24 -79 -8 -16
-12 -88 -12 -211 0 -123 4 -195 12 -211 6 -13 17 -49 23 -79 7 -30 21 -74 31
-97 44 -99 63 -138 69 -143 3 -3 19 -27 35 -55 34 -61 228 -256 273 -276 17
-7 32 -16 32 -20 0 -3 28 -19 63 -35 34 -16 64 -32 67 -36 8 -9 127 -48 150
-48 11 0 20 -4 20 -9 0 -14 142 -31 258 -31 114 0 231 14 260 30 9 5 42 16 73
24 54 15 165 68 255 122 90 53 324 313 324 360 0 7 6 19 13 26 7 7 23 35 37
63 14 27 30 55 35 61 6 6 19 31 30 55 11 24 23 49 28 54 14 17 93 161 106 193
8 18 17 32 21 32 4 0 15 19 26 43 10 23 34 64 51 92 18 27 33 55 33 62 0 7 4
13 9 13 5 0 16 15 25 34 9 19 32 59 51 88 19 29 35 56 35 60 0 7 17 34 92 145
15 23 28 44 28 47 0 3 16 28 35 55 19 26 35 53 35 59 0 6 4 12 8 14 4 2 39 50
77 107 39 57 79 115 90 131 11 15 29 40 40 56 11 16 36 52 57 79 21 28 49 66
63 85 28 38 154 202 182 237 10 11 38 47 63 78 56 71 170 208 213 255 18 20
66 74 107 120 201 224 444 467 620 620 35 30 79 70 98 88 19 17 38 32 41 32 3
0 26 18 51 40 25 22 48 40 53 40 4 0 15 8 25 18 10 10 34 28 55 41 20 12 37
27 37 32 0 5 5 9 11 9 6 0 36 17 67 37 83 56 112 71 260 140 45 20 141 50 228
70 17 4 27 -6 52 -50 17 -30 39 -86 49 -123 10 -38 21 -71 24 -74 14 -11 41
-250 48 -429 12 -279 -19 -909 -49 -976 -4 -11 -18 -96 -30 -190 -13 -93 -26
-174 -30 -180 -4 -5 -18 -71 -30 -145 -13 -74 -26 -139 -30 -145 -4 -5 -18
-62 -30 -125 -12 -63 -26 -119 -30 -125 -4 -5 -20 -66 -36 -135 -15 -69 -31
-127 -34 -130 -4 -3 -17 -48 -30 -100 -12 -52 -26 -99 -30 -105 -4 -5 -17 -48
-30 -95 -13 -47 -26 -89 -30 -95 -4 -5 -20 -55 -35 -110 -15 -55 -31 -104 -35
-110 -5 -5 -18 -44 -30 -85 -13 -41 -26 -79 -30 -85 -5 -5 -17 -41 -29 -80
-12 -38 -30 -88 -40 -110 -11 -23 -24 -61 -31 -85 -7 -25 -15 -49 -20 -55 -4
-5 -20 -46 -35 -90 -15 -44 -30 -84 -34 -90 -5 -5 -19 -41 -32 -80 -13 -38
-26 -72 -30 -75 -3 -3 -16 -34 -28 -70 -13 -36 -26 -69 -31 -75 -4 -5 -17 -37
-29 -70 -12 -33 -33 -82 -45 -110 -13 -27 -29 -68 -36 -90 -7 -22 -16 -42 -20
-45 -4 -3 -17 -32 -29 -65 -12 -33 -27 -65 -32 -71 -5 -6 -15 -28 -23 -50 -7
-21 -30 -75 -51 -119 -20 -44 -45 -98 -55 -120 -96 -211 -146 -318 -230 -490
-146 -300 -204 -417 -295 -590 -52 -99 -107 -205 -122 -235 -15 -30 -30 -57
-33 -60 -3 -3 -16 -29 -30 -59 -14 -30 -30 -59 -36 -65 -6 -6 -23 -36 -38 -66
-15 -30 -42 -82 -61 -115 -18 -33 -43 -78 -55 -100 -11 -22 -45 -83 -76 -135
-30 -52 -59 -107 -65 -122 -6 -16 -14 -28 -18 -28 -4 0 -18 -24 -32 -52 -13
-29 -32 -62 -41 -72 -10 -11 -18 -25 -18 -32 0 -6 -8 -22 -19 -35 -10 -13 -31
-49 -47 -79 -15 -30 -31 -57 -35 -60 -3 -3 -17 -25 -29 -50 -12 -25 -26 -47
-30 -50 -4 -3 -19 -27 -34 -55 -36 -66 -72 -127 -84 -141 -6 -6 -22 -35 -37
-64 -15 -29 -35 -62 -46 -73 -10 -12 -19 -26 -19 -31 0 -6 -16 -33 -35 -60
-19 -27 -35 -53 -35 -57 0 -5 -10 -23 -22 -41 -13 -19 -39 -60 -58 -92 -19
-32 -50 -80 -68 -107 -18 -27 -37 -60 -43 -72 -5 -12 -20 -36 -32 -53 -12 -18
-31 -47 -42 -65 -11 -19 -29 -48 -40 -65 -11 -18 -36 -58 -55 -90 -19 -33 -42
-68 -52 -78 -10 -11 -18 -23 -18 -28 0 -4 -26 -47 -59 -95 -74 -112 -125 -191
-141 -222 -7 -14 -17 -30 -22 -35 -21 -26 -98 -147 -98 -156 0 -5 -6 -13 -13
-17 -7 -4 -26 -30 -42 -58 -16 -27 -37 -58 -47 -69 -10 -11 -18 -24 -18 -29 0
-5 -29 -50 -63 -100 -35 -51 -66 -96 -68 -102 -7 -17 -83 -129 -101 -149 -10
-11 -18 -24 -18 -28 0 -8 -78 -127 -91 -138 -3 -3 -32 -45 -65 -95 -32 -49
-67 -99 -76 -109 -10 -11 -18 -25 -18 -31 0 -6 -9 -21 -21 -33 -28 -31 -109
-150 -109 -162 0 -5 -6 -13 -12 -17 -16 -10 -118 -159 -118 -172 0 -6 -6 -14
-14 -18 -7 -4 -24 -26 -38 -48 -14 -23 -43 -56 -64 -74 -22 -18 -53 -45 -70
-59 -17 -15 -55 -47 -84 -72 -63 -53 -444 -383 -480 -415 -14 -13 -37 -33 -51
-46 -14 -13 -61 -55 -104 -94 -44 -38 -120 -108 -170 -154 -49 -46 -141 -132
-204 -190 -253 -234 -806 -796 -996 -1011 -56 -64 -125 -140 -192 -211 -18
-19 -33 -39 -33 -43 0 -4 -15 -22 -32 -41 -36 -36 -55 -58 -159 -185 -38 -47
-74 -91 -81 -99 -6 -7 -33 -41 -60 -75 -27 -33 -60 -74 -73 -91 -53 -66 -151
-192 -160 -207 -5 -9 -38 -52 -72 -96 -35 -45 -63 -86 -63 -91 0 -6 -4 -11
-10 -11 -5 0 -21 -17 -35 -37 -38 -56 -75 -107 -149 -206 -20 -26 -36 -51 -36
-55 0 -5 -8 -17 -18 -28 -27 -29 -192 -271 -192 -282 0 -6 -6 -12 -13 -15 -8
-3 -20 -18 -28 -34 -8 -15 -42 -69 -77 -120 -34 -51 -62 -95 -62 -97 0 -3 -13
-25 -29 -48 -15 -24 -39 -61 -53 -83 -14 -22 -41 -65 -60 -95 -19 -30 -41 -67
-49 -81 -8 -15 -30 -55 -49 -89 -61 -110 -79 -145 -79 -157 -1 -7 -5 -13 -10
-13 -5 0 -14 -15 -22 -32 -7 -18 -27 -65 -45 -104 -18 -39 -38 -93 -45 -120
-7 -27 -16 -52 -21 -55 -10 -6 -48 -196 -48 -240 0 -16 -6 -42 -14 -58 -13
-24 -26 -30 -98 -45 -46 -10 -87 -21 -93 -25 -5 -4 -59 -18 -120 -31 -60 -13
-112 -26 -115 -30 -3 -3 -54 -16 -115 -29 -60 -13 -114 -27 -120 -31 -5 -4
-66 -20 -134 -35 -69 -15 -132 -31 -140 -35 -9 -5 -63 -19 -121 -31 -58 -13
-107 -26 -110 -29 -3 -4 -45 -15 -95 -25 -49 -10 -106 -24 -125 -31 -19 -7
-78 -23 -130 -34 -52 -11 -104 -25 -115 -30 -11 -5 -74 -21 -140 -35 -66 -14
-129 -30 -140 -35 -11 -5 -62 -19 -114 -30 -51 -11 -101 -24 -110 -29 -9 -5
-63 -18 -121 -31 -58 -12 -107 -25 -110 -29 -3 -4 -57 -18 -120 -31 -63 -13
-117 -26 -120 -30 -3 -3 -63 -19 -135 -35 -71 -15 -134 -32 -140 -35 -5 -4
-26 -11 -45 -15 -75 -14 -166 -37 -185 -45 -11 -5 -54 -16 -95 -25 -41 -9 -95
-25 -120 -35 -25 -10 -65 -26 -90 -36 -25 -10 -51 -24 -58 -31 -7 -7 -19 -13
-26 -13 -12 0 -92 -54 -155 -107 -45 -37 -96 -89 -129 -133 -15 -19 -33 -41
-40 -48 -7 -8 -20 -28 -29 -45 -9 -18 -19 -34 -23 -37 -4 -3 -23 -39 -43 -80
-32 -67 -53 -129 -89 -265 -14 -52 -14 -319 0 -370 6 -22 20 -74 31 -116 30
-109 102 -252 170 -335 15 -17 37 -46 51 -63 21 -27 68 -70 162 -146 9 -7 36
-24 60 -37 24 -13 45 -26 48 -30 3 -4 24 -15 45 -24 22 -9 60 -25 85 -36 25
-12 81 -28 125 -37 44 -9 85 -20 92 -24 17 -11 299 -9 320 2 10 5 67 19 128
31 60 12 114 25 120 29 5 4 60 19 120 32 61 13 112 26 115 29 3 4 46 15 95 25
50 10 104 24 120 31 17 7 89 25 160 40 72 16 132 31 135 34 3 3 52 16 109 29
57 12 111 27 120 31 9 5 61 19 116 31 55 12 106 25 115 30 8 4 62 18 120 30
58 13 107 25 110 29 3 3 63 18 134 34 71 15 136 32 145 36 9 5 63 19 121 31
58 13 107 26 110 29 3 3 55 17 115 29 61 13 115 27 120 31 6 5 57 18 115 30
58 13 110 26 115 30 9 7 57 18 220 53 28 6 52 13 55 17 3 3 46 15 95 25 50 10
106 24 125 31 19 7 80 23 135 35 55 11 105 24 110 29 6 4 57 17 115 29 58 12
123 28 145 36 22 7 85 24 140 36 55 12 105 25 110 29 6 4 57 17 114 30 57 12
111 25 120 30 9 5 61 18 116 30 55 12 109 25 120 30 11 5 74 21 140 35 66 14
127 29 135 34 9 5 65 19 125 31 61 13 112 26 115 30 3 3 55 17 115 29 61 13
115 26 120 31 6 4 62 17 125 30 63 13 117 27 120 30 3 4 66 19 140 35 74 15
140 31 145 35 6 4 57 17 115 29 58 12 114 26 125 31 11 5 70 19 130 31 61 12
112 25 115 29 3 4 59 17 125 30 66 13 122 26 125 30 3 4 70 19 150 35 80 16
147 31 150 34 3 4 59 17 125 30 66 13 127 28 135 32 8 4 67 18 130 30 63 12
120 25 125 29 6 4 66 17 135 30 69 12 130 26 135 30 6 4 77 20 160 35 82 15
157 30 165 35 8 4 74 18 145 30 72 13 132 27 135 30 3 3 68 17 145 30 77 13
142 26 145 30 3 3 82 19 175 35 94 15 177 32 185 36 8 4 74 18 145 29 72 12
139 25 150 30 11 5 81 18 155 30 74 12 144 25 155 30 11 4 83 18 160 30 77 11
149 25 160 29 19 8 160 33 565 98 91 15 167 30 170 33 3 4 79 17 170 29 91 13
170 27 175 31 6 4 87 17 180 30 94 13 172 26 175 30 3 3 100 19 215 35 116 15
212 31 215 35 3 3 86 16 185 29 99 13 185 27 190 31 6 4 91 18 190 30 99 13
182 26 185 30 3 3 89 17 193 30 103 13 187 27 187 32 0 4 17 8 38 9 20 0 127
14 237 30 110 16 286 41 390 55 105 14 199 29 210 34 11 5 103 18 205 30 102
12 194 25 205 30 11 5 108 19 215 31 107 12 197 25 200 29 3 3 118 19 255 35
138 15 257 32 265 36 8 4 103 18 210 29 107 12 209 25 225 30 17 5 125 21 240
35 116 14 334 41 485 60 151 20 379 48 505 62 127 15 232 30 235 33 3 4 113
17 245 30 132 13 242 26 245 30 3 4 113 17 245 29 132 12 249 26 260 31 11 5
153 21 315 35 162 15 304 31 315 35 11 5 137 18 280 30 143 12 269 25 280 30
11 4 146 18 300 30 154 12 289 25 300 30 11 5 164 19 340 31 176 13 322 26
325 29 3 4 196 19 430 34 234 15 434 32 445 36 11 5 193 18 405 30 212 12 392
25 400 28 14 5 451 36 1245 86 209 14 405 27 435 30 30 3 303 21 605 41 303
19 618 40 700 45 345 24 1437 80 1443 74 6 -4 -19 -117 -32 -143 -15 -32 -15
-363 0 -382 6 -8 17 -43 23 -78 11 -58 52 -163 83 -216 7 -11 25 -43 40 -72
16 -28 35 -54 43 -57 8 -3 15 -11 15 -17 0 -15 69 -90 140 -153 65 -57 162
-122 207 -138 18 -7 33 -15 33 -20 0 -8 156 -58 182 -58 9 0 18 -4 20 -10 2
-5 58 -15 125 -22 98 -9 146 -9 235 0 62 7 117 17 123 21 5 5 35 14 65 21 68
15 183 69 274 128 76 50 222 189 251 239 11 18 22 33 25 33 3 0 17 21 30 48
14 26 28 49 31 52 8 7 49 100 49 112 0 5 8 28 19 51 10 23 27 78 37 122 10 44
21 82 25 85 3 3 16 48 29 100 12 52 26 100 30 105 4 6 17 48 29 95 12 47 25
92 28 100 4 8 14 40 22 70 l16 55 100 3 c157 4 803 21 1210 31 204 5 798 17
1320 26 2502 43 2673 44 3890 27 729 -11 1156 -17 2615 -42 344 -6 641 -15
660 -20 19 -5 283 -14 585 -21 303 -6 732 -18 955 -25 223 -7 765 -25 1205
-39 440 -14 823 -30 850 -35 28 -5 394 -21 815 -35 421 -14 925 -32 1120 -39
195 -8 614 -22 930 -31 316 -9 584 -20 595 -25 11 -4 288 -16 615 -25 548 -16
603 -16 699 -1 58 9 107 20 110 24 3 5 28 14 55 21 44 11 196 84 228 110 7 6
39 31 71 56 32 26 75 63 95 83 43 43 132 155 132 166 0 4 11 22 25 40 14 18
25 36 25 39 0 4 13 36 30 72 16 35 35 86 40 112 6 27 15 56 20 65 5 9 14 66
20 127 12 114 1 300 -19 338 -5 10 -16 47 -25 82 -23 89 -96 235 -157 313 -45
58 -174 188 -186 188 -7 0 -16 7 -20 15 -11 19 -107 77 -198 119 -69 33 -182
66 -222 66 -12 0 -23 5 -25 11 -2 6 -99 14 -263 20 -615 24 -1088 40 -1810 64
-423 14 -792 30 -820 35 -27 5 -394 21 -815 35 -421 14 -997 34 -1280 44 -283
10 -717 24 -965 31 -247 6 -459 15 -470 20 -20 8 -475 21 -1410 40 -286 6
-542 15 -570 20 -49 9 -579 20 -1920 40 -368 6 -764 13 -880 16 -276 8 -2891
8 -3110 0 -219 -7 -1506 -28 -1511 -24 -1 2 23 31 54 64 31 33 100 107 152
163 52 57 111 120 130 140 19 21 74 80 122 132 47 52 102 111 121 132 381 413
1083 1115 1325 1327 35 30 76 66 91 80 70 64 324 276 431 361 54 43 207 161
248 192 24 18 54 41 67 52 13 11 59 45 102 75 43 30 82 60 86 67 4 7 13 13 20
13 7 0 23 10 37 23 31 27 89 69 153 109 26 16 47 34 47 39 0 5 6 9 13 9 7 0
28 13 47 28 19 16 53 41 75 55 22 15 81 55 131 89 51 35 132 90 180 123 49 33
95 66 103 73 7 7 29 22 50 32 38 21 185 120 211 142 9 7 33 22 53 33 21 11 45
28 54 38 9 9 20 17 24 17 9 0 154 91 178 112 8 7 27 19 42 28 72 40 135 80
149 93 8 7 23 16 32 20 9 3 36 18 60 33 24 16 57 36 73 45 128 70 151 83 155
88 3 4 29 17 58 30 28 14 52 28 52 32 0 4 10 11 23 15 12 4 58 23 102 44 44
20 105 43 135 51 30 7 58 18 62 24 5 6 211 10 605 10 496 1 630 4 783 19 102
9 189 22 194 27 6 5 23 9 39 9 46 0 390 50 412 60 11 5 79 18 150 30 72 11
139 25 150 30 11 5 74 18 140 30 66 11 129 24 140 29 11 5 72 19 135 31 63 11
124 25 135 30 11 5 85 21 165 36 80 15 147 30 150 34 3 3 61 16 130 29 69 13
130 26 135 30 10 6 170 41 395 87 69 14 132 28 140 31 16 7 256 55 505 102 83
15 157 31 165 34 8 3 83 15 165 27 83 11 159 25 170 30 22 9 303 50 348 50 15
0 27 4 27 8 0 5 111 21 248 36 136 15 256 32 267 36 11 5 135 19 275 31 140
11 264 25 275 29 22 10 425 38 670 47 88 3 165 10 172 15 7 5 346 13 800 18
758 8 836 11 898 39 11 5 47 17 80 27 58 16 155 65 222 110 103 69 232 200
283 287 13 23 27 44 31 47 16 11 80 161 96 226 10 38 21 71 25 74 4 3 12 56
18 118 11 114 0 303 -18 340 -5 9 -15 42 -22 72 -20 86 -91 231 -157 319 -27
36 -97 115 -108 123 -6 3 -27 21 -47 40 -115 105 -255 182 -388 213 -41 9 -86
22 -99 28 -32 16 -1604 15 -1623 0 -7 -6 -100 -13 -206 -17 -168 -6 -347 -16
-735 -41 -51 -4 -101 -10 -112 -15 -11 -4 -135 -18 -275 -30 -140 -12 -263
-26 -275 -30 -11 -5 -114 -19 -230 -31 -115 -12 -212 -25 -215 -29 -3 -3 -90
-16 -195 -29 -104 -13 -191 -27 -193 -32 -2 -5 -15 -9 -30 -9 -42 0 -375 -50
-397 -59 -11 -5 -85 -19 -165 -32 -80 -12 -149 -25 -155 -29 -5 -4 -75 -17
-155 -30 -80 -13 -147 -26 -150 -30 -3 -3 -66 -16 -140 -29 -74 -13 -139 -26
-145 -31 -5 -4 -77 -20 -159 -35 -82 -14 -156 -30 -165 -35 -9 -5 -68 -18
-131 -30 -63 -11 -124 -25 -135 -30 -11 -5 -69 -18 -130 -30 -60 -12 -119 -25
-130 -30 -11 -5 -74 -19 -140 -31 -66 -12 -122 -25 -125 -29 -3 -4 -75 -19
-160 -35 -85 -15 -161 -31 -170 -36 -8 -4 -71 -18 -140 -29 -69 -12 -134 -25
-145 -30 -11 -5 -85 -19 -165 -30 -80 -12 -154 -26 -165 -30 -11 -5 -87 -17
-170 -27 -126 -15 -242 -18 -735 -18 -552 -1 -752 -7 -775 -25 -5 -4 -39 -11
-75 -14 -80 -9 -208 -34 -235 -46 -17 -8 -139 -40 -150 -40 -8 0 8 35 20 45 6
6 29 35 50 65 21 30 48 68 59 85 12 16 31 41 44 55 12 13 22 30 22 37 0 7 6
16 13 20 16 10 117 151 117 163 0 5 6 13 13 17 8 4 22 22 33 38 10 17 45 65
76 107 32 42 58 81 58 85 0 4 14 21 30 37 17 16 30 34 30 40 0 6 11 25 24 41
51 63 96 126 96 133 0 5 8 17 18 28 10 10 44 57 76 104 32 47 61 87 65 90 4 3
18 23 31 45 13 22 36 56 52 75 15 19 28 40 28 47 0 7 4 13 9 13 4 0 22 21 38
48 17 26 64 94 104 152 40 58 150 222 246 365 95 143 177 265 181 270 4 6 19
28 32 50 13 22 32 49 42 59 10 11 18 24 18 28 0 5 18 36 40 68 22 32 40 64 40
69 0 6 4 11 10 11 5 0 21 23 36 52 14 28 33 58 41 67 9 8 22 30 29 47 8 18 18
36 24 39 6 4 22 27 36 53 35 65 71 125 82 138 6 6 23 36 37 65 15 30 31 56 35
59 4 3 19 28 34 55 15 28 39 71 54 96 57 97 200 365 206 387 4 12 11 22 15 22
4 0 18 26 31 58 13 31 26 59 29 62 4 3 17 30 31 60 14 30 27 57 30 60 3 3 14
25 24 50 10 25 31 72 46 105 52 113 98 220 105 245 4 14 11 27 14 30 4 3 18
34 31 70 13 36 26 70 30 75 4 6 19 46 34 90 15 44 36 99 46 122 11 22 25 63
31 90 7 26 16 50 19 53 4 3 17 37 29 75 12 39 28 84 35 100 8 17 24 71 37 120
12 50 26 92 29 95 4 3 18 46 30 95 13 50 27 92 30 95 4 3 17 48 30 100 12 52
26 100 31 105 7 9 35 109 79 283 10 40 24 117 31 170 7 53 16 101 21 107 11
12 11 342 -1 349 -4 3 -11 34 -15 69 -6 65 -41 204 -55 222 -5 5 -16 34 -26
63 -9 29 -22 58 -28 65 -7 6 -22 32 -35 57 -61 121 -265 344 -349 383 -13 5
-23 14 -23 18 0 7 -40 31 -135 82 -63 34 -132 64 -175 77 -25 7 -49 17 -55 21
-18 12 -137 38 -225 48 -264 32 -291 34 -314 23 -11 -6 -60 -13 -107 -16 -91
-6 -275 -40 -293 -55 -6 -4 -36 -16 -66 -25 -64 -21 -108 -40 -245 -108 -180
-88 -220 -110 -223 -119 -2 -5 -9 -9 -16 -9 -7 0 -41 -18 -75 -40 -34 -22 -66
-40 -71 -40 -6 0 -18 -8 -28 -17 -10 -10 -39 -29 -65 -43 -26 -13 -47 -27 -47
-30 0 -4 -16 -14 -35 -23 -35 -17 -327 -205 -354 -229 -8 -7 -51 -36 -95 -66
-44 -29 -83 -57 -86 -61 -3 -5 -19 -16 -37 -25 -18 -9 -36 -22 -40 -29 -4 -6
-20 -18 -35 -26 -15 -8 -37 -23 -47 -33 -11 -10 -35 -28 -53 -41 -19 -12 -40
-28 -48 -35 -8 -6 -62 -48 -120 -92 -120 -90 -137 -104 -261 -207 -25 -21 -67
-56 -94 -78 -55 -45 -105 -88 -146 -125 -15 -14 -56 -50 -90 -80 -232 -202
-677 -646 -916 -915 -34 -39 -75 -83 -91 -100 -16 -16 -53 -59 -83 -95 -29
-36 -85 -101 -124 -146 -38 -44 -83 -98 -100 -119 -16 -21 -37 -45 -45 -54 -8
-9 -28 -35 -44 -56 -17 -22 -33 -42 -37 -45 -3 -3 -29 -34 -58 -70 -28 -36
-60 -76 -71 -90 -41 -50 -96 -120 -130 -166 -41 -54 -94 -123 -113 -144 -7 -8
-32 -41 -55 -72 -95 -131 -128 -174 -140 -186 -6 -8 -17 -23 -23 -35 -7 -12
-18 -29 -26 -37 -8 -8 -36 -46 -63 -85 -27 -38 -58 -81 -69 -95 -11 -14 -31
-42 -45 -62 -41 -61 -70 -101 -88 -122 -10 -11 -18 -22 -18 -26 0 -3 -20 -32
-45 -65 -25 -33 -45 -63 -45 -67 0 -4 -11 -19 -25 -34 -14 -15 -25 -33 -25
-40 0 -7 -6 -17 -13 -21 -16 -10 -117 -159 -117 -173 0 -6 -6 -13 -14 -16 -7
-3 -26 -26 -40 -52 -25 -44 -50 -81 -94 -141 -9 -13 -26 -39 -37 -56 -11 -18
-33 -55 -50 -82 -16 -26 -35 -52 -42 -56 -7 -4 -13 -12 -13 -18 0 -9 -75 -126
-100 -156 -5 -6 -19 -29 -31 -49 -11 -21 -31 -52 -45 -69 -13 -18 -24 -36 -24
-42 0 -5 -8 -18 -18 -29 -10 -10 -29 -39 -42 -64 -14 -25 -33 -54 -42 -64 -10
-11 -18 -24 -18 -28 0 -5 -18 -36 -40 -68 -22 -32 -40 -64 -40 -69 0 -6 -4
-11 -9 -11 -5 0 -16 -15 -25 -34 -8 -18 -31 -56 -51 -84 -19 -28 -35 -53 -35
-56 0 -2 -16 -28 -35 -57 -19 -30 -35 -59 -35 -66 0 -7 -4 -13 -8 -13 -5 0
-18 -17 -29 -37 -30 -55 -91 -156 -102 -169 -5 -6 -19 -31 -31 -55 -13 -24
-26 -46 -30 -49 -7 -5 -16 -21 -86 -145 -15 -27 -31 -52 -35 -55 -3 -3 -19
-30 -34 -60 -15 -30 -31 -57 -35 -60 -4 -3 -19 -27 -34 -55 -15 -27 -51 -90
-81 -140 -29 -49 -54 -95 -54 -102 -1 -6 -7 -18 -15 -25 -8 -8 -26 -37 -40
-64 -15 -27 -49 -86 -76 -132 -27 -46 -52 -92 -55 -103 -4 -10 -10 -19 -14
-19 -5 0 -20 -27 -35 -60 -15 -32 -31 -62 -36 -65 -5 -3 -20 -29 -35 -58 -14
-28 -38 -73 -53 -98 -15 -25 -56 -99 -91 -165 -36 -65 -67 -121 -71 -124 -3
-3 -14 -25 -25 -49 -11 -24 -24 -49 -30 -55 -6 -6 -23 -36 -38 -66 -15 -30
-43 -82 -62 -115 -19 -33 -47 -85 -61 -115 -14 -30 -30 -57 -35 -60 -4 -3 -18
-28 -30 -55 -12 -28 -25 -52 -28 -55 -4 -3 -18 -27 -31 -55 -14 -27 -27 -52
-30 -55 -3 -3 -19 -31 -35 -63 -17 -32 -43 -85 -60 -117 -16 -32 -35 -64 -41
-72 -5 -7 -19 -33 -29 -58 -11 -25 -22 -47 -26 -50 -3 -3 -29 -50 -58 -105
-28 -55 -55 -105 -59 -110 -5 -6 -23 -39 -40 -75 -39 -81 -140 -271 -150 -285
-4 -5 -13 -23 -20 -40 -7 -16 -27 -53 -44 -81 -26 -44 -39 -54 -97 -79 -36
-16 -68 -31 -71 -34 -3 -4 -30 -17 -60 -31 -30 -14 -57 -28 -60 -31 -3 -4 -30
-17 -60 -30 -30 -12 -57 -26 -60 -29 -3 -3 -32 -17 -65 -30 -33 -13 -62 -27
-65 -31 -3 -4 -34 -19 -70 -34 -36 -15 -67 -30 -70 -34 -3 -4 -33 -18 -67 -30
-35 -13 -63 -27 -63 -31 0 -4 -12 -11 -27 -15 -16 -3 -55 -19 -88 -35 -113
-53 -190 -87 -250 -110 -33 -13 -62 -26 -65 -29 -3 -4 -30 -15 -60 -25 -30
-10 -64 -24 -75 -31 -11 -6 -51 -22 -90 -36 -38 -13 -72 -26 -75 -30 -3 -3
-36 -16 -75 -29 -38 -13 -72 -26 -75 -29 -3 -4 -41 -17 -85 -30 -44 -14 -89
-29 -100 -36 -11 -6 -56 -22 -100 -35 -44 -12 -82 -26 -85 -29 -3 -4 -43 -17
-90 -30 -47 -13 -89 -26 -95 -31 -5 -4 -48 -17 -95 -30 -47 -12 -89 -25 -95
-30 -5 -4 -62 -20 -125 -35 -63 -15 -119 -32 -125 -36 -5 -5 -18 -9 -28 -9
-15 0 -18 5 -14 23 3 12 11 60 18 107 7 47 16 90 20 95 4 6 15 79 24 164 27
237 13 624 -25 706 -5 11 -17 49 -26 85 -9 36 -22 76 -29 90 -7 14 -34 69 -60
123 -43 87 -73 134 -148 231 -21 27 -151 158 -198 200 -37 32 -145 103 -167
110 -12 4 -22 11 -22 15 0 9 -110 61 -128 61 -6 0 -12 4 -14 9 -1 5 -39 20
-83 33 -44 12 -82 25 -85 29 -3 3 -45 15 -95 25 -127 27 -535 27 -674 1 -52
-10 -100 -21 -105 -26 -6 -4 -42 -16 -81 -25 -38 -10 -88 -26 -110 -36 -22
-11 -68 -29 -102 -41 -35 -12 -63 -26 -63 -30 0 -5 -6 -9 -13 -9 -13 0 -217
-98 -227 -109 -3 -4 -27 -17 -55 -31 -27 -13 -52 -27 -55 -30 -3 -4 -26 -18
-52 -32 l-46 -26 -7 52 c-9 76 -36 210 -44 221 -4 6 -13 30 -20 55 -7 25 -22
65 -33 90 -48 107 -72 155 -78 160 -4 3 -15 21 -25 40 -10 19 -24 42 -31 50
-8 8 -36 42 -62 75 -59 73 -206 211 -247 232 -16 9 -33 20 -36 25 -8 12 -81
53 -149 84 -30 13 -67 31 -81 39 -25 14 -124 45 -229 71 -94 23 -311 34 -471
24 -159 -10 -283 -26 -314 -40 -11 -5 -67 -18 -124 -30 -57 -12 -111 -25 -120
-30 -9 -5 -49 -18 -90 -29 -41 -11 -77 -24 -80 -29 -3 -4 -26 -14 -51 -21 -25
-7 -63 -22 -85 -33 -22 -10 -69 -31 -105 -45 -36 -14 -67 -29 -70 -32 -3 -3
-30 -17 -60 -31 -30 -14 -57 -28 -60 -31 -3 -3 -27 -16 -55 -28 -27 -12 -52
-25 -55 -30 -3 -4 -32 -21 -65 -36 -33 -16 -63 -31 -68 -33 -7 -4 28 61 45 83
5 6 33 48 63 95 30 47 58 90 63 95 4 6 19 30 32 55 14 25 31 51 38 58 7 8 20
28 29 45 9 18 19 34 23 37 4 3 20 28 35 55 16 28 32 52 36 55 4 3 16 21 26 40
39 69 88 145 106 164 9 11 17 24 17 28 0 5 17 35 38 66 20 32 42 66 49 77 7
11 27 44 45 73 18 29 47 77 65 105 18 29 42 70 54 92 12 22 25 42 29 45 3 3
20 30 36 60 16 30 37 63 47 74 9 11 17 24 17 29 0 6 16 34 35 63 19 29 35 56
35 61 0 5 7 18 16 28 19 24 63 101 101 175 15 30 31 57 35 60 4 3 18 26 31 50
36 67 135 243 147 260 5 8 22 40 37 70 15 30 30 57 34 60 10 9 227 414 234
438 3 12 10 22 14 22 4 0 18 24 32 53 13 28 26 54 29 57 3 3 33 59 65 125 33
66 65 125 71 131 6 7 19 34 29 60 10 27 21 51 25 54 5 3 21 32 38 65 16 33 66
131 110 217 44 86 85 169 91 185 6 15 18 39 26 53 30 52 154 316 160 343 4 15
11 27 15 27 4 0 18 28 31 63 12 34 26 64 31 67 4 4 17 32 28 64 11 33 24 64
29 70 5 6 19 40 31 76 12 36 26 70 30 75 4 6 20 55 35 110 14 55 30 107 35
115 18 36 34 175 34 305 0 129 -17 283 -33 295 -4 3 -15 34 -25 70 -38 141
-136 293 -271 421 -66 63 -137 119 -151 119 -7 0 -14 6 -17 13 -2 7 -31 23
-63 36 -33 14 -61 28 -64 32 -3 4 -39 17 -80 29 -41 12 -84 26 -95 31 -81 37
-426 37 -510 -1 -11 -5 -47 -16 -80 -25 -90 -24 -238 -98 -320 -159 -121 -91
-313 -283 -460 -461 -16 -20 -43 -51 -60 -70 -16 -18 -46 -52 -65 -76 -19 -23
-52 -63 -73 -88 -77 -92 -97 -116 -117 -141 -58 -71 -248 -300 -277 -335 -58
-68 -77 -90 -113 -135 -19 -24 -63 -77 -97 -119 -34 -42 -72 -87 -83 -101 -11
-14 -33 -41 -49 -60 -76 -90 -417 -501 -457 -550 -25 -30 -58 -71 -75 -90 -45
-51 -87 -101 -116 -135 -27 -34 -210 -253 -251 -302 -15 -18 -40 -47 -57 -66
-16 -19 -46 -53 -65 -77 -103 -125 -152 -184 -194 -230 -13 -14 -61 -70 -107
-125 -46 -55 -119 -140 -162 -190 -43 -49 -91 -104 -105 -122 -15 -18 -43 -50
-62 -71 -19 -21 -55 -63 -80 -92 -54 -64 -199 -231 -243 -280 -18 -19 -54 -62
-82 -94 -27 -32 -66 -75 -85 -95 -19 -21 -48 -53 -64 -72 -80 -95 -83 -97
-152 -115 -37 -9 -89 -27 -115 -40 -26 -13 -52 -24 -58 -24 -6 0 -19 -8 -29
-17 -10 -10 -36 -27 -58 -38 -21 -10 -46 -25 -54 -32 -8 -7 -33 -27 -55 -45
-86 -72 -79 -77 -71 43 7 109 -8 348 -24 377 -5 10 -16 51 -25 92 -8 41 -22
89 -31 105 -8 17 -24 54 -35 84 -10 30 -22 57 -27 60 -4 3 -21 30 -36 60 -15
30 -34 61 -42 68 -8 8 -14 17 -14 21 0 13 -132 154 -191 205 -24 21 -51 44
-59 51 -8 7 -35 24 -59 37 -25 13 -54 32 -65 42 -11 9 -23 17 -28 17 -4 0 -36
13 -70 29 -35 16 -83 35 -108 42 -25 7 -50 16 -56 21 -21 16 -210 38 -323 38
-110 0 -320 -24 -331 -38 -3 -4 -39 -15 -80 -26 -41 -10 -84 -24 -95 -31 -11
-6 -38 -18 -60 -25 -22 -7 -56 -21 -75 -31 -19 -10 -64 -32 -100 -49 -36 -17
-87 -44 -115 -60 -27 -16 -74 -40 -102 -54 -29 -14 -53 -30 -53 -36 0 -5 -6
-10 -13 -10 -7 0 -36 -16 -66 -35 -29 -19 -55 -35 -59 -35 -3 0 -35 -19 -71
-42 -36 -23 -91 -57 -121 -76 -30 -19 -71 -45 -90 -57 -19 -12 -69 -43 -110
-69 -84 -52 -81 -50 -170 -108 -36 -24 -73 -47 -81 -53 -9 -5 -29 -19 -45 -29
-16 -10 -51 -33 -79 -51 -27 -17 -92 -59 -143 -93 -51 -34 -96 -62 -100 -62
-5 0 -17 -9 -29 -19 -11 -10 -33 -26 -49 -35 -31 -17 -61 -36 -78 -49 -33 -23
-86 -59 -126 -83 -25 -15 -53 -36 -64 -46 -11 -10 -25 -18 -31 -18 -6 0 -20
-8 -31 -18 -10 -10 -41 -31 -69 -47 -27 -16 -54 -33 -60 -37 -5 -5 -22 -17
-37 -26 -52 -33 -323 -217 -328 -223 -3 -3 -18 -14 -35 -23 -16 -9 -57 -37
-90 -61 -33 -25 -76 -54 -95 -65 -19 -11 -60 -39 -90 -61 -30 -22 -73 -52 -95
-66 -22 -14 -44 -32 -48 -39 -4 -8 -13 -14 -19 -14 -5 0 -38 -20 -72 -45 -33
-25 -74 -54 -91 -65 -58 -41 -220 -159 -237 -174 -9 -8 -27 -20 -40 -27 -13
-6 -37 -24 -54 -38 -17 -14 -57 -44 -88 -66 -32 -22 -68 -48 -80 -57 -34 -28
-111 -84 -139 -103 -25 -16 -25 -14 14 64 21 44 39 85 39 91 0 5 4 10 9 10 5
0 19 26 31 58 13 31 29 64 37 73 7 8 13 19 13 23 0 4 20 49 45 100 25 52 45
99 45 105 0 6 4 11 8 11 5 0 22 33 38 73 16 39 32 74 36 75 5 2 8 8 8 13 0 5
15 41 34 81 136 292 184 401 191 431 4 15 10 27 14 27 4 0 16 24 26 53 10 28
31 78 47 109 15 31 28 63 28 70 0 8 6 22 13 33 8 11 24 47 37 80 13 33 26 65
30 70 4 6 20 46 35 90 16 44 34 89 41 99 7 11 21 44 30 75 10 31 21 58 25 61
3 3 17 37 30 75 12 39 28 79 35 90 7 11 22 51 33 89 12 38 25 74 30 80 5 6 19
45 32 86 13 41 27 77 30 80 4 3 17 39 29 80 13 41 26 80 30 85 4 6 17 42 30
80 12 39 28 84 35 100 7 17 23 66 35 110 12 44 26 85 30 90 5 6 18 49 30 95
12 47 26 90 30 95 5 6 18 48 30 95 11 47 27 99 34 115 8 17 22 66 32 110 10
44 21 82 24 85 3 3 18 59 34 125 15 66 31 127 36 136 4 9 19 67 32 130 12 63
26 116 29 119 4 3 16 61 29 130 12 69 26 134 31 145 4 11 20 88 34 170 15 83
33 186 41 230 7 44 21 148 30 230 8 83 19 159 24 170 23 54 50 540 50 910 0
373 -26 793 -51 820 -5 5 -9 19 -9 31 0 34 -52 308 -59 314 -4 3 -15 41 -25
85 -10 44 -24 94 -31 110 -7 17 -23 62 -36 100 -12 39 -25 72 -28 75 -4 3 -16
32 -26 64 -11 33 -25 64 -30 70 -6 6 -17 27 -25 46 -16 42 -101 203 -111 210
-3 3 -16 23 -28 45 -23 42 -60 96 -89 130 -9 11 -26 34 -38 51 -67 97 -227
257 -364 365 -14 11 -41 33 -61 49 -20 17 -40 30 -44 30 -5 0 -22 11 -39 24
-17 12 -47 31 -66 41 -19 10 -37 21 -40 25 -3 4 -34 20 -70 35 -36 15 -67 31
-70 35 -3 4 -32 17 -65 29 -33 12 -74 28 -91 36 -18 8 -60 22 -95 30 -35 9
-72 20 -83 26 -10 6 -66 20 -125 31 -88 16 -156 20 -401 23 -162 1 -313 1
-335 -1z m24683 -4101 c-32 -66 -44 -89 -49 -93 -3 -3 -19 -30 -36 -60 -53
-97 -87 -155 -92 -160 -3 -3 -15 -21 -25 -40 -25 -47 -64 -111 -103 -170 -18
-27 -33 -54 -33 -59 0 -4 -7 -14 -16 -22 -8 -7 -27 -36 -41 -63 -14 -28 -29
-53 -33 -56 -4 -3 -17 -22 -29 -43 -12 -21 -26 -44 -31 -50 -18 -20 -100 -147
-100 -153 0 -4 -16 -28 -35 -54 -19 -26 -35 -52 -35 -57 0 -5 -11 -20 -25 -33
-14 -13 -25 -27 -25 -32 0 -9 -79 -129 -91 -138 -4 -3 -15 -19 -25 -37 -11
-17 -41 -64 -69 -103 -27 -40 -55 -80 -61 -90 -11 -19 -15 -26 -89 -128 -25
-34 -45 -66 -45 -70 0 -5 -9 -18 -21 -30 -28 -31 -109 -150 -109 -162 0 -5 -6
-13 -13 -17 -8 -4 -22 -21 -33 -38 -10 -16 -35 -53 -56 -81 -21 -28 -38 -56
-38 -62 0 -7 -4 -12 -10 -12 -5 0 -16 -13 -25 -29 -8 -16 -20 -35 -27 -43 -24
-25 -58 -77 -58 -88 0 -5 -4 -10 -9 -10 -5 0 -20 -17 -32 -37 -13 -21 -29 -44
-37 -53 -28 -32 -102 -141 -102 -150 0 -5 -6 -13 -13 -17 -8 -4 -22 -21 -33
-38 -21 -33 -131 -185 -163 -225 -11 -14 -31 -42 -45 -62 -48 -72 -71 -103
-78 -106 -4 -2 -17 -20 -30 -40 -12 -20 -28 -43 -36 -52 -29 -34 -112 -145
-112 -152 0 -4 -10 -18 -22 -31 -13 -13 -41 -50 -63 -81 -22 -32 -52 -72 -67
-90 -15 -17 -28 -37 -28 -44 0 -7 -7 -15 -15 -18 -8 -3 -25 -22 -37 -42 -12
-21 -25 -39 -28 -42 -15 -14 -107 -137 -113 -152 -3 -10 -11 -18 -16 -18 -5 0
-20 -17 -32 -37 -13 -21 -26 -40 -30 -43 -9 -7 -109 -140 -109 -145 0 -2 -10
-15 -22 -28 -13 -13 -39 -45 -58 -70 -34 -45 -148 -193 -193 -250 -12 -15 -34
-41 -49 -59 -16 -17 -28 -34 -28 -37 0 -3 -15 -23 -33 -43 -17 -20 -50 -60
-72 -88 -22 -28 -49 -62 -60 -75 -11 -12 -40 -49 -65 -80 -49 -62 -153 -189
-201 -245 -16 -19 -38 -46 -49 -60 -11 -14 -35 -43 -54 -65 -123 -145 -194
-227 -237 -275 -42 -47 -48 -51 -39 -25 6 17 21 46 34 65 34 52 106 181 106
190 0 5 4 10 9 12 5 2 24 32 42 66 44 82 57 106 97 170 17 29 32 56 32 60 0 4
7 17 16 27 19 24 63 101 101 175 15 30 32 57 36 58 4 2 19 25 33 50 14 26 40
72 59 102 37 61 77 129 120 205 16 28 32 52 35 55 4 3 17 25 31 50 13 25 27
49 32 55 22 29 97 151 97 159 0 6 8 19 19 30 10 12 29 41 42 66 13 25 32 54
42 64 9 11 17 24 17 28 0 5 18 36 40 68 22 32 40 64 40 69 0 6 4 11 8 11 5 0
19 19 32 43 13 23 26 44 30 47 4 3 20 28 36 55 15 28 36 59 46 69 10 11 18 24
18 29 0 5 16 31 35 57 19 26 35 52 35 57 0 6 9 18 20 28 11 10 20 22 20 26 0
4 20 37 45 72 25 36 45 69 45 74 0 6 8 17 18 26 9 9 26 33 37 53 11 21 30 49
43 62 12 14 22 31 22 38 0 7 6 17 13 21 12 8 67 88 67 97 0 3 11 17 25 32 14
15 25 33 25 40 0 7 6 17 14 21 8 4 27 29 42 55 16 25 52 79 81 120 29 40 67
95 85 121 18 26 45 62 60 80 15 18 28 37 28 44 0 7 6 16 13 20 8 4 22 22 33
38 10 17 33 48 51 71 18 23 33 46 33 52 0 6 6 15 13 19 8 4 22 22 33 38 10 17
45 64 77 105 31 41 71 93 87 115 26 34 106 137 193 249 12 16 39 49 59 75 21
25 49 60 62 76 13 17 52 64 86 105 34 41 76 92 94 114 70 86 216 256 300 347
183 200 250 270 404 423 261 260 359 348 340 309z m-22381 -6398 c-7 -14 -15
-25 -19 -25 -3 0 -17 -17 -29 -37 -13 -21 -25 -40 -28 -43 -12 -11 -111 -159
-111 -166 0 -4 -7 -14 -15 -23 -19 -21 -105 -149 -105 -158 0 -3 -7 -13 -15
-22 -17 -19 -105 -149 -105 -156 0 -3 -18 -32 -40 -64 -22 -32 -40 -64 -40
-70 0 -6 -4 -11 -8 -11 -5 0 -18 -17 -29 -37 -25 -46 -89 -154 -100 -168 -4
-6 -19 -33 -33 -60 -14 -28 -28 -52 -31 -55 -10 -9 -109 -213 -109 -226 0 -7
-4 -14 -10 -16 -5 -1 -21 -37 -35 -78 -14 -41 -32 -88 -39 -105 -8 -16 -22
-64 -31 -105 -9 -41 -21 -84 -25 -95 -39 -89 -39 -495 -1 -580 5 -11 19 -57
31 -102 13 -46 27 -83 31 -83 5 0 9 -6 9 -12 0 -15 45 -112 59 -130 6 -7 28
-39 48 -70 61 -92 283 -308 317 -308 4 0 22 -11 39 -23 18 -13 48 -30 67 -37
19 -8 40 -19 47 -25 6 -7 49 -22 95 -35 45 -13 85 -27 88 -31 14 -20 239 -41
380 -36 151 5 300 25 300 39 0 4 8 8 18 8 22 0 205 51 212 60 3 3 25 12 50 20
25 7 61 21 80 31 19 10 80 38 135 63 55 26 107 50 115 56 8 5 65 34 125 65 61
31 117 63 125 70 8 7 38 25 65 39 55 29 65 35 142 83 29 18 55 33 59 33 3 0
26 14 51 30 24 17 58 37 75 46 17 9 36 20 42 25 6 5 43 29 81 54 39 24 84 53
100 65 17 11 66 44 110 72 44 29 85 56 90 60 21 18 82 58 132 88 28 17 53 34
55 38 2 4 37 29 78 57 41 27 80 54 85 60 6 7 24 20 40 30 17 11 37 25 45 32 8
7 49 38 90 68 41 30 80 58 85 62 6 5 37 28 70 53 101 76 169 130 190 150 12
11 25 20 30 20 5 0 18 9 30 19 66 63 87 81 92 81 3 0 23 16 45 36 22 19 41 34
42 32 2 -2 -3 -41 -10 -88 -7 -47 -13 -104 -13 -127 -1 -23 -5 -45 -11 -48 -6
-4 -10 -67 -10 -155 0 -88 4 -151 10 -155 6 -3 10 -22 10 -41 0 -46 28 -181
45 -219 8 -16 23 -56 34 -87 11 -32 27 -65 35 -74 9 -8 16 -21 16 -27 0 -12
76 -134 102 -165 43 -50 194 -192 204 -192 6 0 14 -6 17 -12 3 -7 27 -24 53
-38 27 -14 54 -30 60 -36 7 -6 34 -19 60 -29 27 -10 58 -24 69 -31 11 -6 54
-20 95 -29 41 -10 86 -23 99 -29 29 -13 377 -15 406 -2 11 5 57 17 102 27 45
9 97 25 115 34 18 9 57 25 87 36 30 10 57 23 60 27 3 5 33 21 65 36 32 16 64
32 70 37 6 5 47 33 91 62 43 28 87 60 97 70 10 9 22 17 26 17 5 0 17 8 28 18
10 9 55 44 99 77 44 33 87 67 97 75 32 27 219 178 292 235 76 60 272 216 317
252 25 21 61 50 80 65 19 15 77 61 129 103 52 41 105 83 118 93 13 9 35 27 50
39 15 12 61 47 102 78 41 30 84 62 95 70 80 63 169 128 206 151 24 15 48 33
52 40 4 8 12 14 17 14 9 0 109 69 147 100 6 5 28 19 49 30 20 12 42 26 49 33
7 7 32 24 56 39 24 15 53 33 63 40 11 7 49 32 85 56 36 23 73 47 81 52 19 13
126 77 168 101 32 19 40 13 22 -19 -5 -9 -25 -51 -44 -92 -18 -41 -45 -100
-59 -131 -14 -31 -31 -76 -37 -100 -7 -24 -16 -49 -20 -54 -5 -6 -19 -58 -31
-115 -43 -201 -28 -524 31 -655 9 -22 21 -51 25 -65 10 -34 85 -170 93 -170 4
0 13 -12 19 -27 25 -56 205 -229 293 -282 76 -46 203 -102 267 -119 38 -9 70
-20 73 -24 3 -4 58 -12 123 -19 119 -11 326 0 365 20 9 5 49 17 87 27 39 10
91 28 116 41 26 13 52 23 58 23 12 0 123 59 221 117 61 36 62 37 139 88 29 19
56 35 61 35 4 0 18 11 32 24 14 12 32 26 39 29 34 16 232 146 272 179 15 13
33 25 40 27 16 6 139 88 158 106 9 8 20 15 26 15 5 0 22 11 37 25 15 14 29 25
32 25 4 0 31 17 124 80 20 14 58 39 84 55 26 17 57 38 68 48 12 9 24 17 28 17
4 0 24 14 45 30 21 17 41 30 45 30 3 0 3 -24 -1 -52 -27 -192 -19 -539 15
-678 28 -112 59 -206 76 -235 10 -16 21 -41 25 -55 5 -14 19 -42 32 -63 13
-21 33 -54 44 -73 10 -19 24 -41 29 -47 115 -142 236 -263 295 -294 17 -9 35
-22 40 -29 11 -14 152 -87 232 -122 29 -12 83 -29 120 -38 37 -8 77 -20 88
-25 86 -38 642 -38 730 0 11 5 85 19 164 31 79 12 151 25 160 30 9 5 84 22
166 38 183 36 373 80 400 92 11 5 61 18 110 30 50 11 99 24 110 29 11 5 60 19
110 31 49 12 94 25 100 29 5 4 61 21 123 36 61 16 112 32 112 37 0 4 8 8 18 8
22 0 165 42 172 50 3 4 24 11 48 17 50 13 52 7 19 -57 -13 -25 -32 -70 -43
-100 -10 -30 -22 -57 -26 -60 -4 -3 -14 -24 -22 -46 -8 -23 -25 -65 -39 -95
-13 -30 -30 -72 -37 -94 -7 -22 -17 -45 -21 -51 -5 -6 -21 -45 -35 -85 -14
-41 -29 -78 -34 -84 -4 -5 -18 -39 -31 -75 -12 -36 -28 -74 -35 -85 -6 -11
-20 -45 -29 -75 -10 -30 -21 -59 -25 -65 -4 -5 -17 -39 -29 -75 -13 -36 -32
-86 -44 -112 -21 -46 -24 -48 -62 -48 -22 0 -161 -5 -310 -10 -865 -31 -1114
-42 -1145 -50 -19 -5 -253 -18 -520 -30 -267 -12 -494 -25 -505 -30 -11 -4
-213 -18 -450 -30 -236 -12 -443 -26 -460 -30 -16 -5 -212 -19 -435 -30 -223
-11 -421 -25 -440 -30 -19 -5 -82 -11 -140 -14 -424 -21 -868 -49 -885 -56
-11 -4 -193 -18 -405 -30 -212 -12 -394 -25 -405 -30 -11 -4 -180 -20 -375
-34 -458 -33 -1011 -80 -1030 -88 -8 -3 -170 -18 -360 -33 -190 -14 -354 -30
-365 -35 -11 -4 -137 -18 -280 -30 -143 -11 -269 -25 -280 -30 -11 -4 -130
-18 -265 -30 -135 -11 -254 -25 -265 -29 -11 -5 -126 -19 -255 -31 -129 -11
-244 -25 -255 -30 -11 -4 -144 -20 -295 -35 -151 -14 -284 -30 -295 -35 -11
-4 -117 -18 -235 -30 -118 -12 -224 -25 -235 -30 -11 -5 -117 -18 -235 -30
-118 -12 -222 -24 -230 -27 -8 -4 -132 -21 -275 -39 -143 -18 -359 -47 -480
-63 -121 -17 -314 -43 -430 -59 -115 -15 -217 -31 -225 -34 -8 -4 -105 -16
-215 -29 -110 -12 -202 -25 -205 -28 -3 -4 -111 -19 -240 -35 -129 -15 -244
-32 -255 -36 -11 -5 -101 -18 -200 -30 -99 -12 -187 -24 -195 -27 -15 -7 -248
-42 -595 -90 -104 -15 -192 -29 -195 -33 -3 -3 -104 -19 -225 -35 -121 -15
-222 -31 -225 -34 -3 -4 -86 -17 -185 -30 -99 -13 -184 -27 -190 -31 -5 -4
-89 -18 -185 -30 -96 -13 -177 -26 -180 -30 -3 -4 -79 -17 -170 -29 -91 -12
-174 -26 -185 -31 -11 -5 -105 -20 -210 -35 -104 -14 -197 -29 -205 -32 -16
-7 -230 -44 -500 -88 -85 -14 -164 -30 -175 -35 -11 -5 -87 -19 -170 -31 -82
-12 -152 -25 -155 -28 -3 -4 -86 -20 -185 -36 -99 -15 -187 -32 -195 -36 -8
-4 -76 -17 -150 -29 -74 -11 -144 -25 -155 -30 -11 -5 -81 -19 -155 -31 -74
-12 -141 -25 -150 -30 -8 -4 -87 -20 -174 -34 -88 -15 -166 -31 -175 -35 -9
-5 -74 -19 -146 -31 -71 -13 -132 -26 -135 -29 -3 -4 -54 -15 -115 -25 -60
-10 -128 -24 -150 -31 -22 -7 -92 -22 -155 -34 -63 -11 -122 -24 -130 -29 -8
-4 -82 -21 -165 -36 -82 -16 -152 -31 -155 -35 -3 -3 -61 -16 -130 -30 -69
-13 -127 -27 -130 -30 -3 -4 -20 -10 -38 -13 l-33 -7 61 73 c34 39 73 86 88
103 15 17 38 46 52 64 14 18 39 49 56 69 17 20 63 77 103 126 39 50 81 101 92
115 11 14 54 68 95 120 91 117 111 142 147 180 15 17 27 34 27 38 0 4 10 18
23 32 12 14 57 70 99 125 42 55 83 107 90 115 7 9 40 52 73 95 33 44 63 81 67
83 4 2 17 20 30 40 12 20 28 43 36 52 7 8 36 44 63 80 27 36 55 72 63 80 7 8
22 28 32 45 10 16 25 36 32 45 34 39 162 209 162 215 0 4 9 17 20 29 24 26
141 182 156 208 6 11 23 32 38 47 14 15 26 30 26 34 0 6 35 54 88 122 4 6 19
26 32 45 14 19 27 37 30 40 17 16 110 152 110 160 0 5 6 13 13 17 8 4 22 22
33 38 10 17 47 68 81 115 35 47 72 99 83 115 67 99 104 140 207 225 63 52 128
106 144 120 16 14 43 36 60 50 17 14 45 37 63 52 17 15 60 50 96 78 99 78 130
103 161 130 39 34 72 60 149 120 60 47 79 63 160 130 54 45 208 167 248 198
13 9 35 27 50 39 40 34 213 171 246 196 25 20 80 63 146 116 22 18 71 57 183
144 16 12 40 32 55 44 33 27 136 108 182 143 18 14 50 39 71 55 74 60 105 84
134 107 17 12 41 33 55 45 14 13 28 23 31 23 3 0 20 12 37 28 17 15 41 35 54
44 13 10 50 39 84 65 33 27 75 59 94 73 57 43 169 134 206 168 14 12 27 22 31
22 3 0 19 11 37 25 17 14 42 34 54 43 13 9 34 26 46 37 12 11 33 28 46 37 14
10 48 36 75 58 28 22 69 54 93 70 40 30 71 55 118 100 12 11 24 20 28 20 3 0
30 19 59 43 29 23 68 53 87 67 38 28 103 79 140 110 14 11 58 45 98 75 40 30
80 61 88 70 8 8 19 15 22 15 4 0 18 10 32 23 14 12 57 46 95 74 39 29 77 58
85 65 8 7 28 22 45 34 17 11 39 28 50 37 46 38 172 134 198 150 16 10 36 25
45 33 9 8 62 48 117 89 55 40 107 79 115 87 9 7 32 24 52 36 20 13 38 26 40
30 3 9 70 52 80 52 3 0 1 -11 -5 -25z"/>
</g>
</svg>
